<svg xmlns="http://www.w3.org/2000/svg" viewBox="0 0 1200 750" width="1200" height="750" role="img" aria-label="Candidate Ranker - Hybrid BM25 + Dense Retrieval">
  <defs>
    <linearGradient id="bg" x1="0" y1="0" x2="1" y2="1">
      <stop offset="0" stop-color="#2a1e05"/>
      <stop offset="1" stop-color="#0f0a01"/>
    </linearGradient>
    <linearGradient id="accent" x1="0" y1="0" x2="1" y2="1">
      <stop offset="0" stop-color="#ffd166"/>
      <stop offset="1" stop-color="#ff8c42"/>
    </linearGradient>
  </defs>
  <rect width="1200" height="750" fill="url(#bg)"/>
  <g fill="none" stroke="#ffffff" stroke-opacity="0.05" stroke-width="1">
    <path d="M0 187.5 H1200 M0 375 H1200 M0 562.5 H1200 M300 0 V750 M600 0 V750 M900 0 V750"/>
  </g>
  <g><rect x="380" y="170" width="70" height="330" rx="8" fill="url(#accent)" fill-opacity="1.00"/><rect x="470" y="230" width="70" height="270" rx="8" fill="url(#accent)" fill-opacity="0.87"/><rect x="560" y="285" width="70" height="215" rx="8" fill="url(#accent)" fill-opacity="0.74"/><rect x="650" y="335" width="70" height="165" rx="8" fill="url(#accent)" fill-opacity="0.61"/><rect x="740" y="380" width="70" height="120" rx="8" fill="url(#accent)" fill-opacity="0.48"/></g>
  <text x="80" y="120" font-family="Arial, Helvetica, sans-serif" font-size="34" fill="#ffd166" letter-spacing="6">04</text>
  <text x="80" y="660" font-family="Arial, Helvetica, sans-serif" font-size="54" font-weight="700" fill="#ffffff">Candidate Ranker</text>
  <text x="80" y="710" font-family="Arial, Helvetica, sans-serif" font-size="28" fill="#ffffff" fill-opacity="0.6">Hybrid BM25 + Dense Retrieval</text>
</svg>
