<svg xmlns="http://www.w3.org/2000/svg" viewBox="0 0 1200 750" width="1200" height="750" role="img" aria-label="Voice Sales Agent - Real-time AI Outbound Calling">
  <defs>
    <linearGradient id="bg" x1="0" y1="0" x2="1" y2="1">
      <stop offset="0" stop-color="#06231f"/>
      <stop offset="1" stop-color="#01100b"/>
    </linearGradient>
    <linearGradient id="accent" x1="0" y1="0" x2="1" y2="1">
      <stop offset="0" stop-color="#41e0a3"/>
      <stop offset="1" stop-color="#2bb0ff"/>
    </linearGradient>
  </defs>
  <rect width="1200" height="750" fill="url(#bg)"/>
  <g fill="none" stroke="#ffffff" stroke-opacity="0.05" stroke-width="1">
    <path d="M0 187.5 H1200 M0 375 H1200 M0 562.5 H1200 M300 0 V750 M600 0 V750 M900 0 V750"/>
  </g>
  <g><path d="M620 315 A 60 60 0 0 1 620 435" fill="none" stroke="url(#accent)" stroke-width="8" stroke-linecap="round" stroke-opacity="0.80"/><path d="M620 265 A 110 110 0 0 1 620 485" fill="none" stroke="url(#accent)" stroke-width="8" stroke-linecap="round" stroke-opacity="0.58"/><path d="M620 215 A 160 160 0 0 1 620 535" fill="none" stroke="url(#accent)" stroke-width="8" stroke-linecap="round" stroke-opacity="0.36"/></g><g transform="translate(470 320) rotate(-20)" fill="url(#accent)"><path d="M14 0 C6 0 0 6 0 14 C0 80 70 150 136 150 C144 150 150 144 150 136 L150 110 C150 104 146 99 140 98 L108 90 C103 89 98 91 95 95 L84 109 C64 99 51 86 41 66 L55 55 C59 52 61 47 60 42 L52 10 C51 4 46 0 40 0 Z"/></g>
  <text x="80" y="120" font-family="Arial, Helvetica, sans-serif" font-size="34" fill="#41e0a3" letter-spacing="6">03</text>
  <text x="80" y="660" font-family="Arial, Helvetica, sans-serif" font-size="54" font-weight="700" fill="#ffffff">Voice Sales Agent</text>
  <text x="80" y="710" font-family="Arial, Helvetica, sans-serif" font-size="28" fill="#ffffff" fill-opacity="0.6">Real-time AI Outbound Calling</text>
</svg>
