<svg xmlns="http://www.w3.org/2000/svg" viewBox="0 0 1200 750" width="1200" height="750" role="img" aria-label="VisionCraft - AI Image Generation Platform">
  <defs>
    <linearGradient id="bg" x1="0" y1="0" x2="1" y2="1">
      <stop offset="0" stop-color="#2a0a3d"/>
      <stop offset="1" stop-color="#0a0118"/>
    </linearGradient>
    <linearGradient id="accent" x1="0" y1="0" x2="1" y2="1">
      <stop offset="0" stop-color="#ff7ac6"/>
      <stop offset="1" stop-color="#ffb86b"/>
    </linearGradient>
  </defs>
  <rect width="1200" height="750" fill="url(#bg)"/>
  <g fill="none" stroke="#ffffff" stroke-opacity="0.05" stroke-width="1">
    <path d="M0 187.5 H1200 M0 375 H1200 M0 562.5 H1200 M300 0 V750 M600 0 V750 M900 0 V750"/>
  </g>
  <g transform="translate(420 190)"><rect x="0" y="0" width="360" height="300" rx="16" fill="#ffffff" fill-opacity="0.06" stroke="url(#accent)" stroke-width="4"/><circle cx="110" cy="95" r="40" fill="url(#accent)"/><path d="M20 270 L130 150 L210 230 L270 175 L340 270 Z" fill="url(#accent)" fill-opacity="0.55"/></g><g fill="url(#accent)"><path d="M840 200 l14 34 34 14 -34 14 -14 34 -14 -34 -34 -14 34 -14 z"/><path d="M360 470 l9 22 22 9 -22 9 -9 22 -9 -22 -22 -9 22 -9 z"/></g>
  <text x="80" y="120" font-family="Arial, Helvetica, sans-serif" font-size="34" fill="#ff7ac6" letter-spacing="6">02</text>
  <text x="80" y="660" font-family="Arial, Helvetica, sans-serif" font-size="64" font-weight="700" fill="#ffffff">VisionCraft</text>
  <text x="80" y="710" font-family="Arial, Helvetica, sans-serif" font-size="28" fill="#ffffff" fill-opacity="0.6">AI Image Generation Platform</text>
</svg>
